<svg id="visual" viewBox="0 0 900 600" width="900" height="600" xmlns="http://www.w3.org/2000/svg" xmlns:xlink="http://www.w3.org/1999/xlink" version="1.1"><path d="M0 73L12.5 74C25 75 50 77 75 74C100 71 125 63 150 62C175 61 200 67 225 67C250 67 275 61 300 58C325 55 350 55 375 56C400 57 425 59 450 58C475 57 500 53 525 56C550 59 575 69 600 70C625 71 650 63 675 59C700 55 725 55 750 56C775 57 800 59 825 60C850 61 875 61 887.5 61L900 61L900 0L887.5 0C875 0 850 0 825 0C800 0 775 0 750 0C725 0 700 0 675 0C650 0 625 0 600 0C575 0 550 0 525 0C500 0 475 0 450 0C425 0 400 0 375 0C350 0 325 0 300 0C275 0 250 0 225 0C200 0 175 0 150 0C125 0 100 0 75 0C50 0 25 0 12.5 0L0 0Z" fill="#e0f2f1"></path><path d="M0 229L12.5 241C25 253 50 277 75 267C100 257 125 213 150 209C175 205 200 241 225 236C250 231 275 185 300 167C325 149 350 159 375 167C400 175 425 181 450 173C475 165 500 143 525 159C550 175 575 229 600 239C625 249 650 215 675 218C700 221 725 261 750 262C775 263 800 225 825 217C850 209 875 231 887.5 242L900 253L900 59L887.5 59C875 59 850 59 825 58C800 57 775 55 750 54C725 53 700 53 675 57C650 61 625 69 600 68C575 67 550 57 525 54C500 51 475 55 450 56C425 57 400 55 375 54C350 53 325 53 300 56C275 59 250 65 225 65C200 65 175 59 150 60C125 61 100 69 75 72C50 75 25 73 12.5 72L0 71Z" fill="#a4d9d7"></path><path d="M0 295L12.5 305C25 315 50 335 75 319C100 303 125 251 150 249C175 247 200 295 225 297C250 299 275 255 300 239C325 223 350 235 375 238C400 241 425 235 450 233C475 231 500 233 525 255C550 277 575 319 600 323C625 327 650 293 675 288C700 283 725 307 750 309C775 311 800 291 825 288C850 285 875 299 887.5 306L900 313L900 251L887.5 240C875 229 850 207 825 215C800 223 775 261 750 260C725 259 700 219 675 216C650 213 625 247 600 237C575 227 550 173 525 157C500 141 475 163 450 171C425 179 400 173 375 165C350 157 325 147 300 165C275 183 250 229 225 234C200 239 175 203 150 207C125 211 100 255 75 265C50 275 25 251 12.5 239L0 227Z" fill="#5fbfbf"></path><path d="M0 421L12.5 428C25 435 50 449 75 453C100 457 125 451 150 457C175 463 200 481 225 470C250 459 275 419 300 405C325 391 350 403 375 403C400 403 425 391 450 394C475 397 500 415 525 432C550 449 575 465 600 458C625 451 650 421 675 417C700 413 725 435 750 439C775 443 800 429 825 430C850 431 875 447 887.5 455L900 463L900 311L887.5 304C875 297 850 283 825 286C800 289 775 309 750 307C725 305 700 281 675 286C650 291 625 325 600 321C575 317 550 275 525 253C500 231 475 229 450 231C425 233 400 239 375 236C350 233 325 221 300 237C275 253 250 297 225 295C200 293 175 245 150 247C125 249 100 301 75 317C50 333 25 313 12.5 303L0 293Z" fill="#5fbfbf"></path><path d="M0 481L12.5 482C25 483 50 485 75 494C100 503 125 519 150 531C175 543 200 551 225 542C250 533 275 507 300 493C325 479 350 477 375 474C400 471 425 467 450 465C475 463 500 463 525 479C550 495 575 527 600 530C625 533 650 507 675 501C700 495 725 509 750 515C775 521 800 519 825 523C850 527 875 537 887.5 542L900 547L900 461L887.5 453C875 445 850 429 825 428C800 427 775 441 750 437C725 433 700 411 675 415C650 419 625 449 600 456C575 463 550 447 525 430C500 413 475 395 450 392C425 389 400 401 375 401C350 401 325 389 300 403C275 417 250 457 225 468C200 479 175 461 150 455C125 449 100 455 75 451C50 447 25 433 12.5 426L0 419Z" fill="#a4d9d7"></path><path d="M0 601L12.5 601C25 601 50 601 75 601C100 601 125 601 150 601C175 601 200 601 225 601C250 601 275 601 300 601C325 601 350 601 375 601C400 601 425 601 450 601C475 601 500 601 525 601C550 601 575 601 600 601C625 601 650 601 675 601C700 601 725 601 750 601C775 601 800 601 825 601C850 601 875 601 887.5 601L900 601L900 545L887.5 540C875 535 850 525 825 521C800 517 775 519 750 513C725 507 700 493 675 499C650 505 625 531 600 528C575 525 550 493 525 477C500 461 475 461 450 463C425 465 400 469 375 472C350 475 325 477 300 491C275 505 250 531 225 540C200 549 175 541 150 529C125 517 100 501 75 492C50 483 25 481 12.5 480L0 479Z" fill="#e0f2f1"></path></svg>