<svg id="visual" viewBox="0 0 900 300" width="900" height="300" xmlns="http://www.w3.org/2000/svg" xmlns:xlink="http://www.w3.org/1999/xlink" version="1.1"><rect x="0" y="0" width="900" height="300" fill="#008080"></rect><defs><linearGradient id="grad1_0" x1="66.7%" y1="0%" x2="100%" y2="100%"><stop offset="-10%" stop-color="#e0f2f1" stop-opacity="1"></stop><stop offset="110%" stop-color="#e0f2f1" stop-opacity="1"></stop></linearGradient></defs><defs><linearGradient id="grad1_1" x1="66.7%" y1="0%" x2="100%" y2="100%"><stop offset="-10%" stop-color="#e0f2f1" stop-opacity="1"></stop><stop offset="110%" stop-color="#008080" stop-opacity="1"></stop></linearGradient></defs><defs><linearGradient id="grad2_0" x1="0%" y1="0%" x2="33.3%" y2="100%"><stop offset="-10%" stop-color="#e0f2f1" stop-opacity="1"></stop><stop offset="110%" stop-color="#e0f2f1" stop-opacity="1"></stop></linearGradient></defs><defs><linearGradient id="grad2_1" x1="0%" y1="0%" x2="33.3%" y2="100%"><stop offset="-10%" stop-color="#008080" stop-opacity="1"></stop><stop offset="110%" stop-color="#e0f2f1" stop-opacity="1"></stop></linearGradient></defs><g transform="translate(900, 0)"><path d="M0 120C-17.4 120.1 -34.8 120.2 -45.9 110.9C-57 101.6 -61.8 82.9 -70.7 70.7C-79.6 58.5 -92.7 52.8 -101.6 42.1C-110.5 31.4 -115.3 15.7 -120 0L0 0Z" fill="#83b8b6"></path><path d="M0 60C-8.7 60 -17.4 60.1 -23 55.4C-28.5 50.8 -30.9 41.5 -35.4 35.4C-39.8 29.3 -46.4 26.4 -50.8 21C-55.3 15.7 -57.6 7.8 -60 0L0 0Z" fill="#e0f2f1"></path></g><g transform="translate(0, 300)"><path d="M0 -120C16.1 -118.9 32.2 -117.8 45.9 -110.9C59.6 -104 70.9 -91.3 78.5 -78.5C86 -65.7 89.8 -52.9 96.1 -39.8C102.4 -26.7 111.2 -13.4 120 0L0 0Z" fill="#83b8b6"></path><path d="M0 -60C8.1 -59.4 16.1 -58.9 23 -55.4C29.8 -52 35.5 -45.6 39.2 -39.2C43 -32.9 44.9 -26.4 48 -19.9C51.2 -13.4 55.6 -6.7 60 0L0 0Z" fill="#e0f2f1"></path></g></svg>