<svg id="visual" viewBox="0 0 900 675" width="900" height="675" xmlns="http://www.w3.org/2000/svg" xmlns:xlink="http://www.w3.org/1999/xlink" version="1.1"><rect x="0" y="0" width="900" height="675" fill="#e0f2f1"></rect><g transform="translate(451.17532820241706 364.87037871555447)"><path d="M181.3 -242.4C248.2 -200.9 324.7 -165.7 346.5 -109.9C368.3 -54.2 335.4 22.1 304.7 93.7C274.1 165.3 245.8 232.3 195.4 262.9C145 293.6 72.5 287.8 10.4 273.4C-51.7 259.1 -103.3 236.2 -157.5 206.8C-211.7 177.4 -268.5 141.6 -307.7 84.9C-346.8 28.2 -368.4 -49.2 -348.2 -113.6C-327.9 -178 -266 -229.4 -201 -271.4C-136 -313.5 -68 -346.2 -5.4 -338.8C57.2 -331.4 114.4 -283.8 181.3 -242.4" fill="#008080"></path></g></svg>