<svg id="visual" viewBox="0 0 900 50" width="900" height="50" xmlns="http://www.w3.org/2000/svg" xmlns:xlink="http://www.w3.org/1999/xlink" version="1.1"><path d="M0 32L15 31.8C30 31.7 60 31.3 90 31.3C120 31.3 150 31.7 180 32.8C210 34 240 36 270 34.5C300 33 330 28 360 28C390 28 420 33 450 32.7C480 32.3 510 26.7 540 24.5C570 22.3 600 23.7 630 25.5C660 27.3 690 29.7 720 30C750 30.3 780 28.7 810 27.5C840 26.3 870 25.7 885 25.3L900 25L900 0L885 0C870 0 840 0 810 0C780 0 750 0 720 0C690 0 660 0 630 0C600 0 570 0 540 0C510 0 480 0 450 0C420 0 390 0 360 0C330 0 300 0 270 0C240 0 210 0 180 0C150 0 120 0 90 0C60 0 30 0 15 0L0 0Z" fill="#cfefee"></path><path d="M0 14L15 17C30 20 60 26 90 28.7C120 31.3 150 30.7 180 28.3C210 26 240 22 270 19.5C300 17 330 16 360 17.3C390 18.7 420 22.3 450 23.2C480 24 510 22 540 21.7C570 21.3 600 22.7 630 21.5C660 20.3 690 16.7 720 17.7C750 18.7 780 24.3 810 25.5C840 26.7 870 23.3 885 21.7L900 20L900 0L885 0C870 0 840 0 810 0C780 0 750 0 720 0C690 0 660 0 630 0C600 0 570 0 540 0C510 0 480 0 450 0C420 0 390 0 360 0C330 0 300 0 270 0C240 0 210 0 180 0C150 0 120 0 90 0C60 0 30 0 15 0L0 0Z" fill="#97c9c8"></path><path d="M0 10L15 12C30 14 60 18 90 18.5C120 19 150 16 180 15.7C210 15.3 240 17.7 270 19.2C300 20.7 330 21.3 360 19.8C390 18.3 420 14.7 450 14.8C480 15 510 19 540 20.5C570 22 600 21 630 20C660 19 690 18 720 17.8C750 17.7 780 18.3 810 19C840 19.7 870 20.3 885 20.7L900 21L900 0L885 0C870 0 840 0 810 0C780 0 750 0 720 0C690 0 660 0 630 0C600 0 570 0 540 0C510 0 480 0 450 0C420 0 390 0 360 0C330 0 300 0 270 0C240 0 210 0 180 0C150 0 120 0 90 0C60 0 30 0 15 0L0 0Z" fill="#5ca4a3"></path><path d="M0 6L15 7.2C30 8.3 60 10.7 90 12C120 13.3 150 13.7 180 13C210 12.3 240 10.7 270 9C300 7.3 330 5.7 360 5.7C390 5.7 420 7.3 450 8.8C480 10.3 510 11.7 540 10.8C570 10 600 7 630 6.5C660 6 690 8 720 8.3C750 8.7 780 7.3 810 6.5C840 5.7 870 5.3 885 5.2L900 5L900 0L885 0C870 0 840 0 810 0C780 0 750 0 720 0C690 0 660 0 630 0C600 0 570 0 540 0C510 0 480 0 450 0C420 0 390 0 360 0C330 0 300 0 270 0C240 0 210 0 180 0C150 0 120 0 90 0C60 0 30 0 15 0L0 0Z" fill="#008080"></path></svg>