<svg id="visual" viewBox="0 0 900 50" width="900" height="50" xmlns="http://www.w3.org/2000/svg" xmlns:xlink="http://www.w3.org/1999/xlink" version="1.1"><path d="M0 29L10.7 30.2C21.3 31.3 42.7 33.7 64.2 32.2C85.7 30.7 107.3 25.3 128.8 24.7C150.3 24 171.7 28 193 30.7C214.3 33.3 235.7 34.7 257 34.3C278.3 34 299.7 32 321.2 32.3C342.7 32.7 364.3 35.3 385.8 34.7C407.3 34 428.7 30 450 26.8C471.3 23.7 492.7 21.3 514.2 22.8C535.7 24.3 557.3 29.7 578.8 32.8C600.3 36 621.7 37 643 37.3C664.3 37.7 685.7 37.3 707 34.5C728.3 31.7 749.7 26.3 771.2 25.3C792.7 24.3 814.3 27.7 835.8 28.5C857.3 29.3 878.7 27.7 889.3 26.8L900 26L900 0L889.3 0C878.7 0 857.3 0 835.8 0C814.3 0 792.7 0 771.2 0C749.7 0 728.3 0 707 0C685.7 0 664.3 0 643 0C621.7 0 600.3 0 578.8 0C557.3 0 535.7 0 514.2 0C492.7 0 471.3 0 450 0C428.7 0 407.3 0 385.8 0C364.3 0 342.7 0 321.2 0C299.7 0 278.3 0 257 0C235.7 0 214.3 0 193 0C171.7 0 150.3 0 128.8 0C107.3 0 85.7 0 64.2 0C42.7 0 21.3 0 10.7 0L0 0Z" fill="#e0f2f1"></path><path d="M0 23L10.7 23.5C21.3 24 42.7 25 64.2 24.5C85.7 24 107.3 22 128.8 20.2C150.3 18.3 171.7 16.7 193 16.5C214.3 16.3 235.7 17.7 257 18C278.3 18.3 299.7 17.7 321.2 19.3C342.7 21 364.3 25 385.8 27C407.3 29 428.7 29 450 28.3C471.3 27.7 492.7 26.3 514.2 25C535.7 23.7 557.3 22.3 578.8 20.5C600.3 18.7 621.7 16.3 643 15.8C664.3 15.3 685.7 16.7 707 19.2C728.3 21.7 749.7 25.3 771.2 26.2C792.7 27 814.3 25 835.8 25.2C857.3 25.3 878.7 27.7 889.3 28.8L900 30L900 0L889.3 0C878.7 0 857.3 0 835.8 0C814.3 0 792.7 0 771.2 0C749.7 0 728.3 0 707 0C685.7 0 664.3 0 643 0C621.7 0 600.3 0 578.8 0C557.3 0 535.7 0 514.2 0C492.7 0 471.3 0 450 0C428.7 0 407.3 0 385.8 0C364.3 0 342.7 0 321.2 0C299.7 0 278.3 0 257 0C235.7 0 214.3 0 193 0C171.7 0 150.3 0 128.8 0C107.3 0 85.7 0 64.2 0C42.7 0 21.3 0 10.7 0L0 0Z" fill="#a2cbc9"></path><path d="M0 17L10.7 16.7C21.3 16.3 42.7 15.7 64.2 15.2C85.7 14.7 107.3 14.3 128.8 13.7C150.3 13 171.7 12 193 11.3C214.3 10.7 235.7 10.3 257 10.5C278.3 10.7 299.7 11.3 321.2 11.5C342.7 11.7 364.3 11.3 385.8 12.7C407.3 14 428.7 17 450 18.5C471.3 20 492.7 20 514.2 18.3C535.7 16.7 557.3 13.3 578.8 11.8C600.3 10.3 621.7 10.7 643 12C664.3 13.3 685.7 15.7 707 16.5C728.3 17.3 749.7 16.7 771.2 16.7C792.7 16.7 814.3 17.3 835.8 16.3C857.3 15.3 878.7 12.7 889.3 11.3L900 10L900 0L889.3 0C878.7 0 857.3 0 835.8 0C814.3 0 792.7 0 771.2 0C749.7 0 728.3 0 707 0C685.7 0 664.3 0 643 0C621.7 0 600.3 0 578.8 0C557.3 0 535.7 0 514.2 0C492.7 0 471.3 0 450 0C428.7 0 407.3 0 385.8 0C364.3 0 342.7 0 321.2 0C299.7 0 278.3 0 257 0C235.7 0 214.3 0 193 0C171.7 0 150.3 0 128.8 0C107.3 0 85.7 0 64.2 0C42.7 0 21.3 0 10.7 0L0 0Z" fill="#63a5a3"></path><path d="M0 8L10.7 8.8C21.3 9.7 42.7 11.3 64.2 12.3C85.7 13.3 107.3 13.7 128.8 12.5C150.3 11.3 171.7 8.7 193 7.2C214.3 5.7 235.7 5.3 257 6.8C278.3 8.3 299.7 11.7 321.2 11.3C342.7 11 364.3 7 385.8 6.2C407.3 5.3 428.7 7.7 450 9.7C471.3 11.7 492.7 13.3 514.2 13.8C535.7 14.3 557.3 13.7 578.8 13.2C600.3 12.7 621.7 12.3 643 12.3C664.3 12.3 685.7 12.7 707 12.3C728.3 12 749.7 11 771.2 9.7C792.7 8.3 814.3 6.7 835.8 6.5C857.3 6.3 878.7 7.7 889.3 8.3L900 9L900 0L889.3 0C878.7 0 857.3 0 835.8 0C814.3 0 792.7 0 771.2 0C749.7 0 728.3 0 707 0C685.7 0 664.3 0 643 0C621.7 0 600.3 0 578.8 0C557.3 0 535.7 0 514.2 0C492.7 0 471.3 0 450 0C428.7 0 407.3 0 385.8 0C364.3 0 342.7 0 321.2 0C299.7 0 278.3 0 257 0C235.7 0 214.3 0 193 0C171.7 0 150.3 0 128.8 0C107.3 0 85.7 0 64.2 0C42.7 0 21.3 0 10.7 0L0 0Z" fill="#008080"></path></svg>