<svg id="visual" viewBox="0 0 900 50" width="900" height="50" xmlns="http://www.w3.org/2000/svg" xmlns:xlink="http://www.w3.org/1999/xlink" version="1.1"><rect x="0" y="0" width="900" height="50" fill="#e0f2f1"></rect><path d="M0 26L13.7 25.5C27.3 25 54.7 24 82 23.8C109.3 23.7 136.7 24.3 163.8 25.7C191 27 218 29 245.2 31C272.3 33 299.7 35 327 32.7C354.3 30.3 381.7 23.7 409 23C436.3 22.3 463.7 27.7 491 30.2C518.3 32.7 545.7 32.3 573 33.2C600.3 34 627.7 36 654.8 36.2C682 36.3 709 34.7 736.2 32.7C763.3 30.7 790.7 28.3 818 28.5C845.3 28.7 872.7 31.3 886.3 32.7L900 34L900 0L886.3 0C872.7 0 845.3 0 818 0C790.7 0 763.3 0 736.2 0C709 0 682 0 654.8 0C627.7 0 600.3 0 573 0C545.7 0 518.3 0 491 0C463.7 0 436.3 0 409 0C381.7 0 354.3 0 327 0C299.7 0 272.3 0 245.2 0C218 0 191 0 163.8 0C136.7 0 109.3 0 82 0C54.7 0 27.3 0 13.7 0L0 0Z" fill="#e0f2f1"></path><path d="M0 28L13.7 27.7C27.3 27.3 54.7 26.7 82 25.3C109.3 24 136.7 22 163.8 22.5C191 23 218 26 245.2 27.2C272.3 28.3 299.7 27.7 327 25.2C354.3 22.7 381.7 18.3 409 17.7C436.3 17 463.7 20 491 19.7C518.3 19.3 545.7 15.7 573 15.3C600.3 15 627.7 18 654.8 21.2C682 24.3 709 27.7 736.2 27.3C763.3 27 790.7 23 818 22.5C845.3 22 872.7 25 886.3 26.5L900 28L900 0L886.3 0C872.7 0 845.3 0 818 0C790.7 0 763.3 0 736.2 0C709 0 682 0 654.8 0C627.7 0 600.3 0 573 0C545.7 0 518.3 0 491 0C463.7 0 436.3 0 409 0C381.7 0 354.3 0 327 0C299.7 0 272.3 0 245.2 0C218 0 191 0 163.8 0C136.7 0 109.3 0 82 0C54.7 0 27.3 0 13.7 0L0 0Z" fill="#a2cbc9"></path><path d="M0 11L13.7 10.7C27.3 10.3 54.7 9.7 82 9.5C109.3 9.3 136.7 9.7 163.8 11C191 12.3 218 14.7 245.2 16.8C272.3 19 299.7 21 327 21.5C354.3 22 381.7 21 409 19.3C436.3 17.7 463.7 15.3 491 13.3C518.3 11.3 545.7 9.7 573 10.8C600.3 12 627.7 16 654.8 16.7C682 17.3 709 14.7 736.2 13.5C763.3 12.3 790.7 12.7 818 12.8C845.3 13 872.7 13 886.3 13L900 13L900 0L886.3 0C872.7 0 845.3 0 818 0C790.7 0 763.3 0 736.2 0C709 0 682 0 654.8 0C627.7 0 600.3 0 573 0C545.7 0 518.3 0 491 0C463.7 0 436.3 0 409 0C381.7 0 354.3 0 327 0C299.7 0 272.3 0 245.2 0C218 0 191 0 163.8 0C136.7 0 109.3 0 82 0C54.7 0 27.3 0 13.7 0L0 0Z" fill="#63a5a3"></path><path d="M0 9L13.7 9.8C27.3 10.7 54.7 12.3 82 12.2C109.3 12 136.7 10 163.8 9.7C191 9.3 218 10.7 245.2 11C272.3 11.3 299.7 10.7 327 10.2C354.3 9.7 381.7 9.3 409 9.8C436.3 10.3 463.7 11.7 491 10.7C518.3 9.7 545.7 6.3 573 5.2C600.3 4 627.7 5 654.8 5.3C682 5.7 709 5.3 736.2 5.5C763.3 5.7 790.7 6.3 818 6.3C845.3 6.3 872.7 5.7 886.3 5.3L900 5L900 0L886.3 0C872.7 0 845.3 0 818 0C790.7 0 763.3 0 736.2 0C709 0 682 0 654.8 0C627.7 0 600.3 0 573 0C545.7 0 518.3 0 491 0C463.7 0 436.3 0 409 0C381.7 0 354.3 0 327 0C299.7 0 272.3 0 245.2 0C218 0 191 0 163.8 0C136.7 0 109.3 0 82 0C54.7 0 27.3 0 13.7 0L0 0Z" fill="#008080"></path></svg>